<svg width="320" height="1730" viewBox="0 0 320 1730" fill="none" xmlns="http://www.w3.org/2000/svg">
<path d="M93.9349 28.3235C51.7789 28.3235 -5 0 -5 0V1730H325V28.3235C325 28.3235 271.627 0 224.112 0C179.485 0 134.29 28.3235 93.9349 28.3235Z" fill="#FEEAFF"/>
<path d="M89.7944 562.381C177.306 474.372 205.638 360.264 153.077 307.513C100.516 254.763 -13.0355 283.345 -100.547 371.354C-188.058 459.363 -216.391 573.471 -163.829 626.222C-111.268 678.972 2.28307 650.39 89.7944 562.381Z" fill="#F9FAFB"/>
<path d="M187.377 1285.38C266.562 1331.36 352.951 1329.88 380.332 1282.07C407.714 1234.26 365.718 1158.23 286.533 1112.25C207.348 1066.27 120.959 1067.76 93.578 1115.57C66.1968 1163.38 108.192 1239.41 187.377 1285.38Z" fill="#F9FAFB"/>
<path d="M208.991 683.258C142.428 701.195 97.1774 748.287 107.92 788.44C118.663 828.594 181.331 846.604 247.894 828.667C314.456 810.73 359.707 763.639 348.965 723.485C338.222 683.332 275.554 665.322 208.991 683.258Z" fill="#F9FAFB"/>
</svg>
