<svg width="1981" height="1416" viewBox="0 0 1981 1416" fill="none" xmlns="http://www.w3.org/2000/svg">
<path d="M612.114 160.232C362.372 160.232 26 0 26 0V1416H1981V160.232C1981 160.232 1664.81 0 1383.32 0C1118.93 0 851.187 160.232 612.114 160.232Z" fill="#FEEAFF"/>
<path d="M544.78 757.122C681.464 620.439 725.716 443.221 643.621 361.297C561.526 279.372 384.171 323.762 247.487 460.446C110.804 597.129 66.5513 774.346 148.647 856.271C230.742 938.196 408.097 893.806 544.78 757.122Z" fill="#F9FAFB"/>
<path d="M1327.11 1163.95C1494.51 1260.6 1677.14 1257.48 1735.03 1156.97C1792.91 1056.47 1704.13 896.65 1536.73 800C1369.33 703.35 1186.7 706.473 1128.81 806.974C1070.93 907.476 1159.71 1067.3 1327.11 1163.95Z" fill="#F9FAFB"/>
<path d="M1325.81 365.075C1219.12 393.663 1146.58 468.72 1163.8 532.718C1181.02 596.716 1281.47 625.421 1388.17 596.833C1494.86 568.244 1567.39 493.188 1550.17 429.19C1532.95 365.192 1432.5 336.487 1325.81 365.075Z" fill="#F9FAFB"/>
</svg>
