<svg width="768" height="1433" viewBox="0 0 768 1433" fill="none" xmlns="http://www.w3.org/2000/svg">
<path d="M215.033 69.2528C107.216 69.2528 -38 0 -38 0V1432.5H806V69.2528C806 69.2528 669.496 0 547.973 0C433.833 0 318.244 69.2528 215.033 69.2528Z" fill="#FEEAFF"/>
<path d="M244.643 716.45C361.095 599.935 398.797 448.867 328.853 379.031C258.91 309.194 107.808 347.034 -8.64376 463.55C-125.095 580.065 -162.797 731.132 -92.8532 800.969C-22.9101 870.806 128.192 832.966 244.643 716.45Z" fill="#F9FAFB"/>
<path d="M626.539 412.067C519.849 440.655 447.309 515.712 464.529 579.71C481.749 643.708 582.199 672.413 688.899 643.825C795.589 615.236 868.119 540.18 850.899 476.182C833.679 412.184 733.229 383.479 626.539 412.067Z" fill="#F9FAFB"/>
<path d="M484.994 1261.44C652.394 1358.09 835.024 1354.97 892.914 1254.46C950.794 1153.96 862.014 994.143 694.614 897.493C527.214 800.843 344.584 803.966 286.694 904.467C228.814 1004.97 317.594 1164.79 484.994 1261.44Z" fill="#F9FAFB"/>
</svg>
