<svg width="18" height="18" viewBox="0 0 18 18" fill="none" xmlns="http://www.w3.org/2000/svg">
<path d="M16.5 8.58334C16.5029 9.68323 16.2459 10.7682 15.75 11.75C15.162 12.9265 14.2581 13.916 13.1395 14.6077C12.021 15.2995 10.7319 15.6662 9.41667 15.6667C8.31678 15.6695 7.23176 15.4126 6.25 14.9167L1.5 16.5L3.08333 11.75C2.58744 10.7682 2.33047 9.68323 2.33333 8.58334C2.33384 7.26814 2.70051 5.97905 3.39227 4.86047C4.08402 3.74188 5.07355 2.83798 6.25 2.25001C7.23176 1.75412 8.31678 1.49714 9.41667 1.50001H9.83333C11.5703 1.59583 13.2109 2.32898 14.441 3.55906C15.671 4.78914 16.4042 6.42972 16.5 8.16668V8.58334Z" stroke="#6600FF" stroke-width="2" stroke-linecap="round" stroke-linejoin="round"/>
</svg>
