<svg width="1600" height="1018" viewBox="0 0 1600 1018" fill="none" xmlns="http://www.w3.org/2000/svg">
<path d="M384.386 448.016C521.07 307.862 565.322 126.143 483.227 42.1383C401.132 -41.8673 223.777 3.65003 87.0932 143.805C-49.5898 283.96 -93.8425 465.677 -11.7468 549.683C70.3482 633.689 247.703 588.171 384.386 448.016Z" fill="#FEEAFF"/>
<path d="M1226.99 944.845C1394.39 1043.95 1577.02 1040.75 1634.91 937.687C1692.79 834.635 1604.01 670.756 1436.61 571.652C1269.21 472.547 1086.58 475.749 1028.69 578.803C970.814 681.857 1059.59 845.74 1226.99 944.845Z" fill="#FEEAFF"/>
<path d="M954.539 156.955C847.849 186.269 775.309 263.232 792.529 328.855C809.749 394.479 910.199 423.913 1016.9 394.599C1123.59 365.284 1196.12 288.321 1178.9 222.698C1161.68 157.075 1061.23 127.641 954.539 156.955Z" fill="#FEEAFF"/>
</svg>
