<svg width="320" height="1378" viewBox="0 0 320 1378" fill="none" xmlns="http://www.w3.org/2000/svg">
<path d="M89.7944 350.381C177.306 262.372 205.638 148.264 153.077 95.5133C100.516 42.7628 -13.0355 71.3454 -100.547 159.354C-188.058 247.363 -216.391 361.471 -163.829 414.222C-111.268 466.972 2.28307 438.39 89.7944 350.381Z" fill="#FEEAFF"/>
<path d="M166.377 1294.38C245.563 1340.36 331.952 1338.88 359.333 1291.07C386.714 1243.26 344.719 1167.23 265.534 1121.25C186.348 1075.27 99.9594 1076.76 72.5782 1124.57C45.197 1172.38 87.1924 1248.41 166.377 1294.38Z" fill="#FEEAFF"/>
<path d="M249.522 621.477C182.96 639.414 137.709 686.506 148.451 726.659C159.194 766.813 221.862 784.823 288.425 766.886C354.988 748.949 400.239 701.858 389.496 661.704C378.753 621.551 316.085 603.541 249.522 621.477Z" fill="#FEEAFF"/>
</svg>
