<svg width="768" height="1233" viewBox="0 0 768 1233" fill="none" xmlns="http://www.w3.org/2000/svg">
<path d="M184.643 372.45C301.095 255.935 338.797 104.867 268.853 35.0309C198.91 -34.8057 47.808 3.03439 -68.6438 119.55C-185.095 236.065 -222.797 387.133 -152.853 456.969C-82.9101 526.806 68.1924 488.966 184.643 372.45Z" fill="#FEEAFF"/>
<path d="M602.539 294.067C495.849 322.655 423.309 397.712 440.529 461.71C457.749 525.708 558.199 554.413 664.899 525.825C771.589 497.236 844.119 422.18 826.899 358.182C809.679 294.184 709.229 265.479 602.539 294.067Z" fill="#FEEAFF"/>
<path d="M424.994 1162.44C592.394 1259.09 775.024 1255.97 832.914 1155.46C890.794 1054.96 802.014 895.143 634.614 798.493C467.214 701.843 284.584 704.966 226.694 805.467C168.814 905.969 257.594 1065.79 424.994 1162.44Z" fill="#FEEAFF"/>
</svg>
