<svg width="40" height="32" viewBox="0 0 40 32" fill="none" xmlns="http://www.w3.org/2000/svg">
<path d="M16.8376 9.29429C17.7881 8.0143 18.846 6.81769 19.9999 5.71748C14.3912 0.349362 7.5361 -1.55209 3.3361 1.54936C-1.68129 5.2769 -0.95665 14.7494 4.95349 22.7407C9.27523 28.5812 15.1651 31.9986 19.9999 31.9754C18.2888 32.0084 16.6127 31.489 15.2202 30.4943C10.2028 26.7754 10.9274 17.2885 16.8376 9.29429Z" fill="#6600FF"/>
<path d="M36.6316 1.54936C32.4432 -1.55209 25.5795 0.349362 19.9998 5.71748C21.1426 6.81895 22.1899 8.01552 23.1302 9.29429C29.0432 17.2885 29.7679 26.7755 24.7476 30.4885C23.3646 31.4789 21.7006 32.0001 19.9998 31.9755C24.8171 31.9986 30.7244 28.5812 35.0287 22.7407C40.9273 14.7494 41.6519 5.2769 36.6316 1.54936Z" fill="#EE00FF"/>
<path d="M23.1304 9.29434C22.1901 8.01557 21.1429 6.819 20 5.71753C18.8461 6.81774 17.7882 8.01435 16.8376 9.29434C10.9275 17.2885 10.2029 26.7755 15.2203 30.4943C16.6128 31.4891 18.2889 32.0085 20 31.9755C21.7002 32.0018 23.3641 31.4827 24.7478 30.4943C29.7681 26.7755 29.0434 17.2885 23.1304 9.29434Z" fill="#AB73FF"/>
</svg>
